<svg xmlns="http://www.w3.org/2000/svg" width="180" height="53"><g class="layer"><g transform="scale(.1268)"><path d="M0 0h1420v420H0z"/><defs><clipPath id="a" clipPathUnits="userSpaceOnUse"><path d="M0 314.4h1216.23V0H0v314.4z"/></clipPath></defs><g clip-path="url(#a)" transform="matrix(1.33333 0 0 -1.33333 0 419.2)"><path fill="#fff" d="M345.647 178.344c.48.02.63.42.88.67 3.36 3.46 7.06 6.47 11.25 8.89 3.69 2.14 7.64 3.52 11.83 4.2 4.32.7 8.63 1.46 12.99 1.72 5.17.31 10.35.46 15.5-.21 6.22-.82 12.21-2.48 17.78-5.45 5.29-2.83 9.86-6.5 13.34-11.45a28.36 28.36 0 0 0 2.33-4.01c.14-.3.41-.35.61-.11.18.19.34.41.5.62 2.2 2.83 4.68 5.4 7.38 7.74 5.55 4.81 11.83 8.33 18.88 10.44 7.28 2.18 14.73 3.04 22.29 2.53 10.62-.7 20.52-3.74 29.35-9.81 9.31-6.4 15.33-15.11 17.99-26.11.88-3.69 1.32-7.44 1.41-11.23.03-.96.03-1.92.03-2.88v-94.83c0-1.82.13-1.77-1.7-1.77-19.67.01-39.35 0-59.02.01-1.66 0-1.66 0-1.66 1.66v75.64c0 1.28.02 2.56-.17 3.83-.81 5.49-3.86 9.13-9.11 10.86-3.22 1.06-6.51 1.18-9.77.22-5.03-1.47-7.99-4.84-8.98-9.99-.29-1.53-.31-3.07-.31-4.62l-.01-43.98c0-10.6 0-21.21.01-31.82 0-1.9.09-1.81-1.84-1.81-19.08.01-38.17.01-57.26 0-1.83 0-1.76-.11-1.76 1.71.01 25.22.01 50.43.01 75.64 0 1.39-.02 2.77-.21 4.15-.77 5.66-4.53 9.99-10.97 11.06-3 .51-5.96.37-8.82-.71-4.52-1.69-7.17-4.98-8.13-9.69-.25-1.26-.31-2.53-.31-3.81v-76.6c0-1.84.03-1.75-1.74-1.75-19.67.01-39.35.01-59.02.01-2.11-.01-1.92-.11-1.92 1.87v140.08c0 1.97-.14 1.85 1.78 1.85 17.44-.01 34.88-.01 52.31-.01 1.86 0 1.87 0 2.2-1.82.64-3.51 1.27-7.02 1.91-10.53.03-.14.1-.27.15-.4M114.457 253.554c4.96-.07 9.91-.3 14.86-.66a185.38 185.38 0 0 0 16.98-1.99c9.53-1.57 18.9-3.81 27.92-7.32 2.13-.83 4.23-1.76 6.33-2.67 1.24-.55 1.29-.52 1.16-1.89-.21-2.12-.4-4.25-.6-6.37-.32-3.34-.63-6.68-.95-10.02-.45-4.67-.92-9.34-1.37-14-.3-3.08-.58-6.16-.87-9.23l-1.25-13.37a2.54 2.54 0 0 0-.08-.47c-.08-.25-.29-.32-.5-.25-.25.08-.48.22-.71.35-6.67 3.85-13.74 6.8-21.03 9.25-5.21 1.76-10.54 3.03-15.95 3.99-8.21 1.46-16.48 2.11-24.82 2.06-3.52-.02-7.04-.11-10.54-.53-2.75-.33-5.48-.75-8.11-1.68-1.26-.44-2.49-.95-3.62-1.66-3.2-2.01-4.52-5-4.4-8.67.04-1.38.62-2.58 1.6-3.56 1.15-1.15 2.48-2.07 3.98-2.63 4.29-1.61 8.58-3.21 12.94-4.63 3.69-1.2 7.48-2.12 11.21-3.2 6.4-1.84 12.78-3.73 19.19-5.55 4.81-1.38 9.6-2.85 14.27-4.66 5.62-2.18 11.13-4.61 16.3-7.73 5.03-3.03 9.77-6.46 13.87-10.72 6.1-6.32 10.31-13.65 12.42-22.19 1.22-4.95 1.66-9.97 1.62-15.05-.04-5.9-.82-11.69-2.51-17.34-1.75-5.83-4.46-11.17-8.01-16.1-3.63-5.06-8.02-9.38-12.94-13.18-7.18-5.54-15.2-9.4-23.75-12.25-4.97-1.66-10.06-2.81-15.21-3.67-4.26-.71-8.55-1.2-12.86-1.54a17.62 17.62 0 0 1-2.2-.33c-.78-.16-1.59-.23-2.38-.25-5.6-.18-11.2-.14-16.8 0-1.06.03-2.11.18-3.17.36-1.2.2-2.43.26-3.66.34a229.32 229.32 0 0 0-14.47 1.4c-10.7 1.37-21.22 3.53-31.56 6.64-6.22 1.87-12.37 3.97-18.37 6.46-1.33.55-2.64 1.17-3.96 1.73-.46.19-.61.5-.62.98-.06 4.59.03 9.16.76 13.71.49 3.1.8 6.23 1.2 9.35.32 2.54.63 5.07.96 7.61.66 5.18 1.33 10.35 2 15.53l.87 6.82c.05.37.12.74.2 1.1.08.37.36.48.73.3.14-.07.26-.18.4-.25a319.15 319.15 0 0 1 17.22-8.45c2.82-1.28 5.77-2.2 8.73-3.08 6.19-1.84 12.49-3.19 18.85-4.27 10.11-1.71 20.3-2.54 30.56-2.35 3.85.06 7.66.45 11.39 1.47 2.02.56 3.91 1.39 5.6 2.65 1.4 1.05 2.48 2.34 2.96 4.06.64 2.33.42 4.53-1.06 6.52-.57.78-1.25 1.45-2.01 2.05-1.54 1.25-3.27 2.18-5.1 2.95-2.85 1.21-5.83 2.02-8.81 2.84-6.93 1.92-13.85 3.86-20.78 5.78-4.15 1.16-8.35 2.18-12.46 3.5-8.13 2.59-16.08 5.63-23.49 9.94-5.8 3.38-11.11 7.36-15.69 12.27a52.69 52.69 0 0 0-9.85 15.03c-1.24 2.85-2.13 5.8-2.86 8.81a11.31 11.31 0 0 0-.31 2.69c.01 7.83.01 15.67-.01 23.5 0 1.41.32 2.75.68 4.09 1.93 7.04 5.31 13.33 9.99 18.93 5.08 6.09 11.24 10.88 18.08 14.82 4.86 2.79 9.91 5.18 15.22 7.01 6.61 2.28 13.38 3.94 20.28 5.05 8.66 1.39 17.37 1.91 26.13 1.82.75-.01 1.49 0 2.24 0M544.873 149.16v99.62c0 1.94-.15 1.8 1.81 1.8h150.36c.69 0 1.38.01 2.08 0 .36-.01.6-.19.62-.57.02-.32.01-.64.01-.96 0-15.94 0-31.88.01-47.81 0-1.73-.04-1.65-1.68-1.65-29 .01-58.01.01-87.02.01-.16 0-.31 0-.47.01-.33 0-.51-.19-.55-.48-.04-.31-.01-.63-.01-.95l-.01-22.71c0-.27-.02-.54.02-.8a.46.46 0 0 1 .41-.43c.37-.03.74-.02 1.12-.02l66.86.01c.48 0 .96 0 1.44-.03.35-.02.59-.23.6-.6.01-.38.01-.75.01-1.12v-48.14c0-1.45 0-1.45-1.38-1.47h-1.28c-22.12 0-44.25 0-66.38.01-1.28 0-1.43.18-1.43-1.36.02-24.09.01-48.18.02-72.28 0-1.99.15-1.94-1.87-1.94h-61.58c-.27 0-.54-.01-.8 0-.79.03-.89.14-.91.96-.01.26 0 .53 0 .8v100.1M208.267 119.245v70.03c0 1.95-.11 1.82 1.81 1.82h59.17c.22 0 .43.01.64 0 1.01-.02 1.07-.08 1.09-1.1.01-.48 0-.96 0-1.44V49.125c0-1.91.11-1.83-1.81-1.83-19.73.01-39.45 0-59.18 0-.21 0-.43 0-.64.01-1 .02-1.06.08-1.08 1.11-.01.64 0 1.28 0 1.92v68.91"/><path fill="red" d="M274.523 235.07c0-.96.01-1.92 0-2.88-.01-1.43-.17-2.85-.59-4.22-.16-.53-.05-1.06-.18-1.57-.85-3.22-1.85-6.37-3.52-9.29-.76-1.33-1.65-2.56-2.5-3.83-.32-.5-.73-.91-1.12-1.34-.72-.78-1.4-1.6-2.14-2.36-1.86-1.93-4.08-3.39-6.41-4.67-1.76-.97-3.59-1.83-5.52-2.43-.95-.3-1.81-.85-2.82-.98a34.43 34.43 0 0 1-2.96-.51c-1.89-.41-3.79-.5-5.7-.44-.38.01-.74 0-1.11-.13-.23-.08-.55-.15-.76-.06-.68.28-1.37.22-2.06.18-1.82-.1-3.59.23-5.35.6-.53.11-1.05.11-1.57.18-1.11.15-2.12.62-3.15 1-1.04.37-2.11.68-3.08 1.25a24.57 24.57 0 0 1-2.11 1.08c-1.85.85-3.45 2.06-5.07 3.28-1.37 1.03-2.42 2.34-3.58 3.56-1.18 1.25-2.14 2.62-3.09 4.04-1.63 2.44-2.8 5.08-3.57 7.92-.27 1.02-.56 2.03-.83 3.05-.31 1.18-.34 2.4-.61 3.57-.35 1.58-.01 3.18-.35 4.75.34 1.62-.05 3.28.34 4.91.24.96.17 2 .33 2.98.15.94.42 1.86.67 2.77.7 2.61 1.45 5.2 2.77 7.58.96 1.7 1.95 3.39 3.22 4.89.71.85 1.4 1.72 2.11 2.57.79.95 1.79 1.67 2.72 2.45 2.55 2.12 5.48 3.65 8.49 4.95a23.35 23.35 0 0 0 6.24 1.74c.52.07 1.03.24 1.53.4 1.13.37 2.26.59 3.45.57 1.07-.02 2.13.05 3.2.04 2.18-.01 4.35-.19 6.48-.74a28.48 28.48 0 0 1 2.32-.52c2.59-.44 5.01-1.34 7.32-2.54 2.59-1.33 5.15-2.73 7.34-4.67.95-.84 1.8-1.79 2.62-2.78.98-1.18 1.99-2.34 2.86-3.61a28.23 28.23 0 0 0 3.01-5.73c.61-1.57 1.13-3.19 1.68-4.79.08-.25.06-.53.11-.78.66-3.11 1.15-6.24.94-9.44"/><path fill="#fff" d="M978.676 107.902c-2.57-5.73-6.82-9.56-12.88-11.29-4.98-1.42-9.98-1.46-14.97.02-6.2 1.85-10.31 5.98-12.71 11.89-1.07 2.63-1.57 5.41-1.72 8.25-.19 3.69.06 7.33 1.05 10.92 1.13 4.12 3.29 7.6 6.47 10.43 2.26 2.03 4.92 3.33 7.86 4.08 4.76 1.22 9.52 1.16 14.18-.32 6.35-2.01 10.61-6.31 13.05-12.47 1.33-3.36 1.84-6.87 1.85-10.47-.02-3.82-.6-7.53-2.18-11.04m60.81 17.26c-.01.58-.03 1.14-.53 1.6-.35.33-.34.87-.39 1.35-.32 3.51-.82 6.99-1.55 10.43-1.56 7.29-4 14.26-7.57 20.81-4.14 7.6-9.43 14.31-15.89 20.09a58.213 58.213 0 0 1-14.8 9.67c-6.58 2.97-13.53 4.53-20.74 4.86-4.26.2-8.51.01-12.75-.61-4.08-.61-8.05-1.6-11.87-3.12-5.32-2.12-9.99-5.25-14.12-9.19-.46-.44-.89-.92-1.35-1.36-.06-.06-.19-.06-.28-.06-.14.01-.17.09-.17.22a73.6 73.6 0 0 1 .02 1.76c0 24.79 0 49.58.01 74.36 0 1.78.04 1.73-1.76 1.73h-59.66c-.38 0-.75.01-1.12-.01-.59-.02-.79-.2-.81-.75-.02-.8 0-1.6 0-2.4V50.332c0-.59-.01-1.18 0-1.76.01-1.21.05-1.25 1.25-1.27H935.546c.38 0 .75 0 1.12.03.29.03.5.21.55.5.07.42.12.84.16 1.27.16 2.01.31 4.03.47 6.05.16 2.01.34 4.03.51 6.08.52-.08.62-.35.78-.56 1.23-1.6 2.52-3.17 3.91-4.64 3.92-4.12 8.49-7.27 13.92-9.08 2.63-.87 5.33-1.48 8.08-1.89 8.11-1.22 16.16-.9 24.15.92 9.46 2.15 17.73 6.67 24.87 13.17 10.51 9.56 17.67 21.23 21.58 34.89 1.48 5.19 2.41 10.48 2.91 15.85.05.54.05 1.13.43 1.51.47.48.49 1.04.51 1.61.13 4.05.13 8.1-.01 12.15M795.967 115.309c-.42-3.54-1.49-6.88-3.43-9.88-3.23-5.02-7.83-8.01-13.7-9.1-1.63-.3-3.27-.41-4.93-.41-3.84-.01-7.54.69-10.95 2.49-5.08 2.68-8.62 6.73-10.4 12.22-1.25 3.86-1.57 7.8-1.11 11.84.28 2.51.77 4.96 1.76 7.27 2.73 6.39 7.47 10.56 14.2 12.3 4.79 1.23 9.63 1.17 14.36-.35 5.58-1.79 9.61-5.41 12.03-10.74 2.27-4.99 2.8-10.25 2.17-15.64m61.73-66.1v139.92c0 2.16.16 1.97-1.99 1.97h-59.34c-1.77 0-1.68.16-1.87-1.74-.33-3.23-.62-6.47-.94-9.7-.02-.23.1-.54-.22-.67-.39.05-.51.38-.72.6-4.07 4.47-8.83 8.01-14.38 10.44-4.68 2.05-9.59 3.19-14.66 3.69a66.35 66.35 0 0 1-22.07-1.52c-7.64-1.83-14.52-5.24-20.71-10.01-3.89-2.99-7.34-6.48-10.45-10.31-5.56-6.86-9.78-14.46-12.73-22.77-2.79-7.89-4.18-16.07-4.59-24.41-.25-4.9-.19-9.8.25-14.7.39-4.36 1.05-8.68 2.06-12.93 2.44-10.29 6.83-19.69 13.18-28.17 4.84-6.46 10.52-11.99 17.45-16.22 5.85-3.58 12.14-5.94 18.86-7.18 5.91-1.08 11.85-1.43 17.83-.91 4.37.39 8.67 1.14 12.82 2.58 6.85 2.37 12.66 6.28 17.35 11.83.13.16.21.36.32.54l.35-.15c.06-.58.12-1.16.17-1.74.28-2.92.55-5.84.84-8.76.17-1.68.11-1.62 1.82-1.62h59.5c2.04 0 1.87-.06 1.87 1.94"/></g></g></g></svg>